<svg 
 xmlns="http://www.w3.org/2000/svg"
 xmlns:xlink="http://www.w3.org/1999/xlink"
 width="80px" height="80px">
<path fill-rule="evenodd"  fill="rgb(16, 108, 183)"
 d="M41.379,80.000 L41.379,41.379 L80.001,41.379 L80.001,80.000 L41.379,80.000 ZM68.966,53.793 L52.413,53.793 C50.890,53.793 49.655,55.029 49.655,56.552 C49.655,58.074 50.890,59.310 52.413,59.310 L68.966,59.310 C70.488,59.310 71.724,58.074 71.724,56.552 C71.724,55.029 70.488,53.793 68.966,53.793 ZM68.966,62.069 L52.413,62.069 C50.890,62.069 49.655,63.305 49.655,64.827 C49.655,66.351 50.890,67.586 52.413,67.586 L68.966,67.586 C70.488,67.586 71.724,66.351 71.724,64.827 C71.724,63.305 70.488,62.069 68.966,62.069 ZM41.379,-0.000 L80.001,-0.000 L80.001,38.621 L41.379,38.621 L41.379,-0.000 ZM52.413,22.069 L68.966,22.069 C70.488,22.069 71.724,20.833 71.724,19.310 C71.724,17.788 70.488,16.552 68.966,16.552 L52.413,16.552 C50.890,16.552 49.655,17.788 49.655,19.310 C49.655,20.833 50.890,22.069 52.413,22.069 ZM0.001,41.379 L38.620,41.379 L38.620,80.000 L0.001,80.000 L0.001,41.379 ZM10.463,65.636 C9.386,66.713 9.386,68.459 10.463,69.536 C11.002,70.076 11.708,70.345 12.414,70.345 C13.120,70.345 13.826,70.076 14.363,69.536 L19.310,64.590 L24.256,69.536 C24.795,70.076 25.500,70.345 26.207,70.345 C26.913,70.345 27.620,70.076 28.157,69.536 C29.234,68.459 29.234,66.713 28.157,65.636 L23.212,60.690 L28.157,55.744 C29.234,54.667 29.234,52.920 28.157,51.843 C27.081,50.765 25.332,50.765 24.256,51.843 L19.310,56.789 L14.363,51.843 C13.288,50.765 11.540,50.765 10.463,51.843 C9.386,52.920 9.386,54.667 10.463,55.744 L15.410,60.690 L10.463,65.636 ZM0.001,-0.000 L38.620,-0.000 L38.620,38.621 L0.001,38.621 L0.001,-0.000 ZM11.035,22.069 L16.552,22.069 L16.552,27.586 C16.552,29.109 17.788,30.345 19.310,30.345 C20.833,30.345 22.069,29.109 22.069,27.586 L22.069,22.069 L27.586,22.069 C29.108,22.069 30.345,20.833 30.345,19.310 C30.345,17.788 29.108,16.552 27.586,16.552 L22.069,16.552 L22.069,11.035 C22.069,9.512 20.833,8.276 19.310,8.276 C17.788,8.276 16.552,9.512 16.552,11.035 L16.552,16.552 L11.035,16.552 C9.512,16.552 8.276,17.788 8.276,19.310 C8.276,20.833 9.512,22.069 11.035,22.069 Z"/>
</svg>