<svg 
 xmlns="http://www.w3.org/2000/svg"
 xmlns:xlink="http://www.w3.org/1999/xlink"
 width="80px" height="80px">
<path fill-rule="evenodd"  fill="rgb(144, 144, 144)"
 d="M41.380,80.000 L41.380,41.379 L80.000,41.379 L80.000,80.000 L41.380,80.000 ZM68.966,53.793 L52.413,53.793 C50.892,53.793 49.655,55.028 49.655,56.552 C49.655,58.075 50.892,59.310 52.413,59.310 L68.966,59.310 C70.487,59.310 71.724,58.075 71.724,56.552 C71.724,55.028 70.487,53.793 68.966,53.793 ZM68.966,62.069 L52.413,62.069 C50.892,62.069 49.655,63.305 49.655,64.827 C49.655,66.350 50.892,67.587 52.413,67.587 L68.966,67.587 C70.487,67.587 71.724,66.350 71.724,64.827 C71.724,63.305 70.487,62.069 68.966,62.069 ZM41.380,0.000 L80.000,0.000 L80.000,38.621 L41.380,38.621 L41.380,0.000 ZM52.413,22.069 L68.966,22.069 C70.487,22.069 71.724,20.833 71.724,19.310 C71.724,17.788 70.487,16.552 68.966,16.552 L52.413,16.552 C50.892,16.552 49.655,17.788 49.655,19.310 C49.655,20.833 50.892,22.069 52.413,22.069 ZM-0.001,41.379 L38.621,41.379 L38.621,80.000 L-0.001,80.000 L-0.001,41.379 ZM10.464,65.636 C9.386,66.713 9.386,68.459 10.464,69.537 C11.001,70.076 11.707,70.345 12.414,70.345 C13.120,70.345 13.826,70.076 14.363,69.537 L19.310,64.590 L24.257,69.537 C24.793,70.076 25.500,70.345 26.208,70.345 C26.914,70.345 27.619,70.076 28.157,69.537 C29.234,68.459 29.234,66.713 28.157,65.636 L23.211,60.690 L28.157,55.743 C29.234,54.666 29.234,52.920 28.157,51.843 C27.082,50.766 25.333,50.766 24.257,51.843 L19.310,56.789 L14.363,51.843 C13.288,50.766 11.539,50.766 10.464,51.843 C9.386,52.920 9.386,54.666 10.464,55.743 L15.410,60.690 L10.464,65.636 ZM-0.001,0.000 L38.621,0.000 L38.621,38.621 L-0.001,38.621 L-0.001,0.000 ZM11.035,22.069 L16.552,22.069 L16.552,27.586 C16.552,29.109 17.787,30.345 19.310,30.345 C20.833,30.345 22.068,29.109 22.068,27.586 L22.068,22.069 L27.587,22.069 C29.109,22.069 30.345,20.833 30.345,19.310 C30.345,17.788 29.109,16.552 27.587,16.552 L22.068,16.552 L22.068,11.035 C22.068,9.512 20.833,8.276 19.310,8.276 C17.787,8.276 16.552,9.512 16.552,11.035 L16.552,16.552 L11.035,16.552 C9.512,16.552 8.276,17.788 8.276,19.310 C8.276,20.833 9.512,22.069 11.035,22.069 Z"/>
</svg>